<svg id="Ebene_1" data-name="Ebene 1" xmlns="http://www.w3.org/2000/svg" viewBox="0 0 397.79 37.59"><defs><style>.cls-1{fill:#e4e5f2;}</style></defs><title>englishFH</title><g id="Ebene_2" data-name="Ebene 2"><path class="cls-1" d="M96.35,402.56h6.31l3,14.87h.06l3-14.87h6.28v21.06h-3.89V406.81h-.06l-3.75,16.81h-3.3l-3.75-16.81h-.06v16.81H96.35Z" transform="translate(-96.35 -402.15)"/><path class="cls-1" d="M130.16,402.56V406h-7.53v5h7.08v3.48h-7.08v5.66h7.82v3.48H118.39V402.56Z" transform="translate(-96.35 -402.15)"/><path class="cls-1" d="M133,402.56h7c5.87,0,7,4,7,10.24,0,7.43-1.59,10.82-7.23,10.82H133Zm4.25,17.94h1.88c2.95,0,3.54-1.86,3.54-7.58,0-4.78-.41-7.23-3.62-7.23h-1.8Z" transform="translate(-96.35 -402.15)"/><path class="cls-1" d="M150.16,423.62V402.56h4.25v21.06Z" transform="translate(-96.35 -402.15)"/><path class="cls-1" d="M162,402.56h5.25l5.57,21.06h-4.42l-1-4.45h-5.61l-1,4.45h-4.43Zm.56,13.13h4.13l-2-9.47h-.06Z" transform="translate(-96.35 -402.15)"/><path class="cls-1" d="M194.2,402.56V406h-4.6v17.58h-4.25V406h-4.6v-3.48Z" transform="translate(-96.35 -402.15)"/><path class="cls-1" d="M208.09,402.56V406h-7.52v5h7.08v3.48h-7.08v5.66h7.82v3.48H196.33V402.56Z" transform="translate(-96.35 -402.15)"/><path class="cls-1" d="M219.81,409.67c0-3.07-.62-4.39-2.54-4.39-2.12,0-2.66,2.12-2.66,8.11,0,6.37.89,7.52,2.72,7.52,1.5,0,2.65-.77,2.65-5.34h4.25c0,4.57-1.12,8.47-6.7,8.47-6.37,0-7.16-4.55-7.16-11s.79-10.94,7.16-10.94c6.08,0,6.52,4.45,6.52,7.52Z" transform="translate(-96.35 -402.15)"/><path class="cls-1" d="M227,402.56h4.24v8.06h5v-8.06h4.25v21.06h-4.25v-9.35h-5v9.35H227Z" transform="translate(-96.35 -402.15)"/><path class="cls-1" d="M249,402.56,254.11,417h.06V402.56h3.9v21.06h-4.84L248,408.88H248v14.74h-3.89V402.56Z" transform="translate(-96.35 -402.15)"/><path class="cls-1" d="M268,402.15c6.37,0,7.17,4.54,7.17,10.94s-.8,11-7.17,11-7.17-4.55-7.17-11S261.67,402.15,268,402.15Zm0,18.76c2.51,0,2.92-2.15,2.92-7.82s-.41-7.81-2.92-7.81-2.92,2.18-2.92,7.81S265.53,420.91,268,420.91Z" transform="translate(-96.35 -402.15)"/><path class="cls-1" d="M278,423.62V402.56h4.25v17.58h7.52v3.48Z" transform="translate(-96.35 -402.15)"/><path class="cls-1" d="M298.4,402.15c6.37,0,7.16,4.54,7.16,10.94s-.79,11-7.16,11-7.17-4.55-7.17-11S292,402.15,298.4,402.15Zm0,18.76c2.5,0,2.92-2.15,2.92-7.82s-.42-7.81-2.92-7.81-2.92,2.18-2.92,7.81S295.89,420.91,298.4,420.91Z" transform="translate(-96.35 -402.15)"/><path class="cls-1" d="M317.72,408.82c0-1.54-.68-3.54-2.42-3.54-2,0-2.89,2.09-2.89,7.37,0,5.08.47,8.26,2.92,8.26,1,0,2.62-1.09,2.62-3.36V415.4h-2.8v-3.13H322v11.35H318.9v-1.94h-.06a4.74,4.74,0,0,1-4.43,2.36c-5.22,0-6.25-3.9-6.25-11.18,0-7.08,1.65-10.71,7.08-10.71,4.63,0,6.55,2.39,6.55,6.67Z" transform="translate(-96.35 -402.15)"/><path class="cls-1" d="M328.46,402.56l2.77,8.14h.06l2.95-8.14h4.6l-5.46,12.78v8.28h-4.24v-8.28l-5.46-12.78Z" transform="translate(-96.35 -402.15)"/><path class="cls-1" d="M351.88,402.56h5.25l5.57,21.06h-4.42l-1-4.45H351.7l-1,4.45h-4.42Zm.56,13.13h4.13l-2-9.47h0Z" transform="translate(-96.35 -402.15)"/><path class="cls-1" d="M369.34,402.56,374.48,417h.06V402.56h3.89v21.06h-4.84l-5.19-14.74h-.06v14.74h-3.89V402.56Z" transform="translate(-96.35 -402.15)"/><path class="cls-1" d="M381.85,402.56h7c5.87,0,7,4,7,10.24,0,7.43-1.59,10.82-7.22,10.82h-6.7Zm4.25,17.94H388c2.95,0,3.54-1.86,3.54-7.58,0-4.78-.42-7.23-3.63-7.23h-1.8Z" transform="translate(-96.35 -402.15)"/><path class="cls-1" d="M408.06,402.56h7c5.87,0,7,4,7,10.24,0,7.43-1.59,10.82-7.22,10.82h-6.7Zm4.25,17.94h1.89c2.95,0,3.54-1.86,3.54-7.58,0-4.78-.42-7.23-3.63-7.23h-1.8Z" transform="translate(-96.35 -402.15)"/><path class="cls-1" d="M436.82,402.56V406H429.3v5h7.08v3.48H429.3v5.66h7.82v3.48H425.05V402.56Z" transform="translate(-96.35 -402.15)"/><path class="cls-1" d="M443,417.05v.62c0,2,.56,3.24,2.8,3.24a2.43,2.43,0,0,0,2.54-2.6c0-1.88-.94-2.65-3.78-3.59-3.77-1.27-5.51-2.89-5.51-6.37,0-4.13,2.48-6.2,6.52-6.2,3.77,0,6.51,1.62,6.51,5.66v.59H448c0-2-.64-3.12-2.3-3.12a2.16,2.16,0,0,0-2.41,2.45c0,1.29.38,2.12,2.18,2.86l3.27,1.41c3.19,1.42,4,3,4,5.58,0,4.45-2.71,6.46-7.31,6.46-4.81,0-6.7-2.24-6.7-6.14v-.85Z" transform="translate(-96.35 -402.15)"/><path class="cls-1" d="M455.32,423.62V402.56h4.25v21.06Z" transform="translate(-96.35 -402.15)"/><path class="cls-1" d="M472.37,408.82c0-1.54-.68-3.54-2.42-3.54-2,0-2.89,2.09-2.89,7.37,0,5.08.47,8.26,2.92,8.26,1,0,2.63-1.09,2.63-3.36V415.4h-2.8v-3.13h6.87v11.35h-3.13v-1.94h-.06a4.73,4.73,0,0,1-4.42,2.36c-5.22,0-6.25-3.9-6.25-11.18,0-7.08,1.65-10.71,7.07-10.71,4.63,0,6.55,2.39,6.55,6.67Z" transform="translate(-96.35 -402.15)"/><path class="cls-1" d="M485.06,402.56,490.19,417h.06V402.56h3.89v21.06H489.3l-5.19-14.74h-.06v14.74h-3.89V402.56Z" transform="translate(-96.35 -402.15)"/><path class="cls-1" d="M241.27,434.47c-.75,2.74-2.32,5.27-5.5,5.27-4.15,0-3.86-3.89-3.11-7.55s2.22-7.55,6.25-7.55c3,0,3.87,1.66,3.36,4.51H240.4c.32-1.64,0-3-1.8-3-2.5,0-3.36,2.73-4.07,6.09s-.95,6.08,1.55,6.08c2.18,0,2.89-2,3.32-3.8Z" transform="translate(-96.35 -402.15)"/><path class="cls-1" d="M248.8,424.92h2.4l.9,14.53h-1.88l-.22-4h-4.64l-1.89,4h-1.88ZM246,434h3.91l-.39-7h0Z" transform="translate(-96.35 -402.15)"/><path class="cls-1" d="M257.18,424.92h3l.5,11.52h.05l5.31-11.52h3l-3,14.53h-1.79l2.62-12.7h0L261,439.45h-1.79l-.59-12.7h0L256,439.45h-1.79Z" transform="translate(-96.35 -402.15)"/><path class="cls-1" d="M272.49,424.92h3.7c1.26,0,4.52,0,3.63,4.17a5,5,0,0,1-5.07,4.22h-2.22l-1.26,6.14h-1.79Zm.34,6.92H275a3.13,3.13,0,0,0,3-2.83c.33-1.57-.2-2.62-2-2.62h-2Z" transform="translate(-96.35 -402.15)"/><path class="cls-1" d="M283.13,424.92h1.79l-2.11,10.22c-.47,2.14,0,3.13,1.81,3.13s2.71-1.1,3.13-3.13l2.12-10.22h1.79l-2.12,10.22c-.59,2.79-2.38,4.6-5.23,4.6s-3.93-1.59-3.3-4.6Z" transform="translate(-96.35 -402.15)"/><path class="cls-1" d="M300.25,428.69c.32-1.53,0-2.59-1.71-2.59a2.74,2.74,0,0,0-2.89,2.36c-.86,4.09,6.49,1.63,5.41,7a5.22,5.22,0,0,1-5.41,4.32c-3.4,0-4-1.75-3.4-4.85H294c-.33,1.63-.61,3.38,2,3.38a3.17,3.17,0,0,0,3.05-2.56c.85-4.11-6.49-1.73-5.39-7.06a4.85,4.85,0,0,1,5.08-4c2.79,0,3.77,1.36,3.22,4.05Z" transform="translate(-96.35 -402.15)"/><path class="cls-1" d="M317.53,439.45h-1.79l1.44-7h-5l-1.44,7H309l3-14.53h1.79l-1.24,5.94h5l1.24-5.94h1.79Z" transform="translate(-96.35 -402.15)"/><path class="cls-1" d="M326.77,424.92h2.4l.89,14.53h-1.87l-.22-4h-4.64l-1.9,4h-1.87ZM324,434h3.91l-.39-7h0Z" transform="translate(-96.35 -402.15)"/><path class="cls-1" d="M341.17,429c.23-1.53-.06-2.85-1.83-2.85-2.5,0-3.36,2.73-4.07,6.09s-.95,6.08,1.55,6.08,3.26-3,3.68-4.9h-2.87l.31-1.47h4.5l-1.57,7.55h-1.34l.4-2h0a4.15,4.15,0,0,1-3.6,2.26c-3.81,0-3.71-3.64-2.89-7.55.77-3.67,2.22-7.55,6.25-7.55,4.19,0,3.48,3.56,3.4,4.31Z" transform="translate(-96.35 -402.15)"/><path class="cls-1" d="M347.06,424.92h7.51l-.33,1.59h-5.72l-1,4.56H353l-.33,1.58h-5.39l-1.08,5.22h6l-.32,1.58H344Z" transform="translate(-96.35 -402.15)"/><path class="cls-1" d="M357.5,424.92h2.32l2.28,12.13h0l2.52-12.13h1.79l-3,14.53H361l-2.22-11.76h0l-2.45,11.76h-1.79Z" transform="translate(-96.35 -402.15)"/><path class="cls-1" d="M369.83,424.92h4.46c1.87,0,3.54.9,2.95,3.73a4.13,4.13,0,0,1-2.75,3v0c1.71.43,2.22,1.79,1.83,3.58-.63,2.95-2.52,4.15-5.55,4.15h-3.95ZM368.89,438h2.44a3.06,3.06,0,0,0,3.12-2.69c.37-2-.69-2.77-2.28-2.77H370Zm1.43-6.8h2.05a2.81,2.81,0,0,0,3-2.42c.31-1.53-.24-2.38-2-2.38h-2Z" transform="translate(-96.35 -402.15)"/><path class="cls-1" d="M381.41,424.92h7.51l-.33,1.59h-5.72l-.95,4.56h5.39l-.32,1.58h-5.4l-1.08,5.22h6l-.33,1.58H378.4Z" transform="translate(-96.35 -402.15)"/><path class="cls-1" d="M391.85,424.92h4.7c2.3,0,3.44,1.34,3,3.64-.32,1.55-1.22,3.28-3,3.67v0c1.22.14,1.73,1.18,1.55,2.42l-.39,2.48c-.26,1.61-.08,2,.31,2.28h-2.16a1.48,1.48,0,0,1-.16-.89,7.37,7.37,0,0,1,.1-1.2l.34-2.26c.27-2-.79-2.12-1.71-2.12H392l-1.34,6.47h-1.79Zm.43,6.6h1.77a3.12,3.12,0,0,0,3.56-2.81c.3-1.45-.45-2.32-2.14-2.32h-2.14Z" transform="translate(-96.35 -402.15)"/><path class="cls-1" d="M409.49,429c.23-1.53-.06-2.85-1.83-2.85-2.5,0-3.36,2.73-4.07,6.09s-.95,6.08,1.55,6.08,3.26-3,3.68-4.9H406l.31-1.47h4.5l-1.57,7.55h-1.34l.4-2h0a4.15,4.15,0,0,1-3.6,2.26c-3.81,0-3.7-3.64-2.89-7.55.77-3.67,2.22-7.55,6.25-7.55,4.19,0,3.48,3.56,3.4,4.31Z" transform="translate(-96.35 -402.15)"/><path class="cls-1" d="M418.15,424.76a4.45,4.45,0,1,1-4.45,4.45A4.45,4.45,0,0,1,418.15,424.76Zm0,7.7a3.25,3.25,0,1,0-3.18-3.25A3.18,3.18,0,0,0,418.15,432.46Zm2.39-2.5a2.2,2.2,0,0,1-2.21,1.91,2.47,2.47,0,0,1-2.55-2.66,2.44,2.44,0,0,1,2.51-2.67,2.1,2.1,0,0,1,2.19,1.88H419.3a1,1,0,0,0-1.07-.75c-.8,0-1.26.68-1.26,1.54a1.41,1.41,0,0,0,1.25,1.53,1,1,0,0,0,1.07-.78Z" transform="translate(-96.35 -402.15)"/><path class="cls-1" d="M423.41,427.83v-.28q0-2.55,2.73-2.55c2.06,0,2.63,1,2.63,2.37a3.15,3.15,0,0,1-1.34,2.76,7.83,7.83,0,0,0-1.66,1.8h3v1.56h-5.42a5,5,0,0,1,1.92-3.83c1.45-1.28,1.47-1.64,1.47-2.28s-.13-1.11-.7-1.11c-.77,0-.77.91-.77,1.56Z" transform="translate(-96.35 -402.15)"/><path class="cls-1" d="M432.59,433.66c-2.54,0-2.79-1.6-2.79-4.33,0-2.44.27-4.33,2.79-4.33s2.8,1.59,2.8,4.33C435.39,431.76,435.11,433.66,432.59,433.66Zm0-1.28c.69,0,.78-.64.78-3s-.09-3.07-.78-3.07-.78.63-.78,3.07S431.91,432.38,432.59,432.38Z" transform="translate(-96.35 -402.15)"/><path class="cls-1" d="M438,427.6H436.4v-1.27h.26c1.52,0,1.88-.79,2-1.33h1.42v8.49h-2Z" transform="translate(-96.35 -402.15)"/><path class="cls-1" d="M444.11,431.5a1.25,1.25,0,0,0,.12.62.51.51,0,0,0,.49.26c.67,0,.85-.52.85-2.39h0a1.57,1.57,0,0,1-1.51.74c-1.3,0-2-.73-2-2.64,0-1.69.54-3.09,2.78-3.09,2.51,0,2.81,1.59,2.81,4.13,0,2.84-.21,4.53-3,4.53-1.53,0-2.43-.63-2.47-2.16Zm1.39-3.61c0-1-.16-1.62-.75-1.62s-.74.55-.74,1.47.12,1.5.76,1.5S445.5,428.65,445.5,427.89Z" transform="translate(-96.35 -402.15)"/></g></svg>