<svg id="Ebene_1" data-name="Ebene 1" xmlns="http://www.w3.org/2000/svg" viewBox="0 0 406.82 40.58"><defs><style>.cls-1{fill:#e4e5f2;}</style></defs><title>germanFH</title><g id="Ebene_2" data-name="Ebene 2"><path class="cls-1" d="M94.23,401.11h6.9l3.3,16.26h.06l3.32-16.26h6.88v23h-4.26v-18.4h-.07l-4.1,18.4h-3.61l-4.1-18.4h-.06v18.4H94.23Z" transform="translate(-94.23 -400.65)"/><path class="cls-1" d="M132.51,401.11v3.8h-8.23v5.43H132v3.8h-7.74v6.2h8.55v3.81h-13.2v-23Z" transform="translate(-94.23 -400.65)"/><path class="cls-1" d="M136.19,401.11h7.61c6.43,0,7.62,4.38,7.62,11.19,0,8.14-1.74,11.85-7.91,11.85h-7.32Zm4.65,19.62h2.06c3.23,0,3.87-2,3.87-8.3,0-5.22-.45-7.9-4-7.9h-2Z" transform="translate(-94.23 -400.65)"/><path class="cls-1" d="M155.52,424.15v-23h4.65v23Z" transform="translate(-94.23 -400.65)"/><path class="cls-1" d="M177.31,401.11v3.8h-8.23v5.43h7.74v3.8h-7.74v6.2h8.55v3.81h-13.2v-23Z" transform="translate(-94.23 -400.65)"/><path class="cls-1" d="M186.12,401.11l5.62,15.78h.06V401.11h4.26v23h-5.29L185.09,408H185v16.14h-4.26v-23Z" transform="translate(-94.23 -400.65)"/><path class="cls-1" d="M213.59,401.11v3.8h-5v19.24h-4.64V404.91h-5v-3.8Z" transform="translate(-94.23 -400.65)"/><path class="cls-1" d="M229.28,401.11v3.8h-8.23v5.43h7.74v3.8h-7.74v6.2h8.55v3.81H216.4v-23Z" transform="translate(-94.23 -400.65)"/><path class="cls-1" d="M242.58,408.88c0-3.35-.68-4.81-2.78-4.81-2.32,0-2.9,2.33-2.9,8.88,0,7,1,8.23,3,8.23,1.65,0,2.91-.84,2.91-5.84h4.65c0,5-1.23,9.26-7.33,9.26-7,0-7.84-5-7.84-12s.87-12,7.84-12c6.65,0,7.13,4.88,7.13,8.23Z" transform="translate(-94.23 -400.65)"/><path class="cls-1" d="M250.87,401.11h4.65v8.81h5.42v-8.81h4.65v23h-4.65V413.92h-5.42v10.23h-4.65Z" transform="translate(-94.23 -400.65)"/><path class="cls-1" d="M275.79,401.11l5.62,15.78h.06V401.11h4.26v23h-5.29L274.76,408h-.07v16.14h-4.26v-23Z" transform="translate(-94.23 -400.65)"/><path class="cls-1" d="M290.8,424.15v-23h4.65v23Z" transform="translate(-94.23 -400.65)"/><path class="cls-1" d="M305.16,401.11v9.23h.07l5.87-9.23h5L309.88,411l7,13.17h-5.23l-4.74-9.46-1.72,2.62v6.84h-4.64v-23Z" transform="translate(-94.23 -400.65)"/><path class="cls-1" d="M331.57,401.11v16.07c0,2.29.52,4,2.71,4s2.71-1.71,2.71-4V401.11h4.65v16.07c0,5.84-3.59,7.42-7.36,7.42s-7.36-1.26-7.36-7.42V401.11Z" transform="translate(-94.23 -400.65)"/><path class="cls-1" d="M351.55,401.11l5.61,15.78h.07V401.11h4.26v23H356.2L350.52,408h-.07v16.14h-4.26v-23Z" transform="translate(-94.23 -400.65)"/><path class="cls-1" d="M366.56,401.11h7.62c6.42,0,7.61,4.38,7.61,11.19,0,8.14-1.74,11.85-7.91,11.85h-7.32Zm4.65,19.62h2.06c3.23,0,3.87-2,3.87-8.3,0-5.22-.45-7.9-4-7.9h-2Z" transform="translate(-94.23 -400.65)"/><path class="cls-1" d="M400.79,412.92v3.81h-9.1v-3.81Z" transform="translate(-94.23 -400.65)"/><path class="cls-1" d="M404.86,401.11h7.62c6.42,0,7.61,4.38,7.61,11.19,0,8.14-1.74,11.85-7.9,11.85h-7.33Zm4.65,19.62h2.06c3.23,0,3.88-2,3.88-8.3,0-5.22-.45-7.9-4-7.9h-2Z" transform="translate(-94.23 -400.65)"/><path class="cls-1" d="M436.85,401.11v3.8h-8.23v5.43h7.74v3.8h-7.74v6.2h8.55v3.81H424v-23Z" transform="translate(-94.23 -400.65)"/><path class="cls-1" d="M444.05,417v.68c0,2.16.61,3.55,3.06,3.55a2.66,2.66,0,0,0,2.78-2.84c0-2.07-1-2.91-4.13-3.94-4.13-1.38-6-3.16-6-7,0-4.52,2.71-6.78,7.13-6.78,4.14,0,7.14,1.78,7.14,6.2v.65h-4.46c0-2.2-.71-3.43-2.52-3.43a2.37,2.37,0,0,0-2.64,2.68c0,1.42.42,2.33,2.39,3.13l3.58,1.55c3.49,1.55,4.39,3.26,4.39,6.1,0,4.88-3,7.07-8,7.07-5.26,0-7.33-2.45-7.33-6.71V417Z" transform="translate(-94.23 -400.65)"/><path class="cls-1" d="M458.09,424.15v-23h4.65v23Z" transform="translate(-94.23 -400.65)"/><path class="cls-1" d="M477.23,408c0-1.68-.75-3.88-2.65-3.88-2.23,0-3.16,2.3-3.16,8.07,0,5.55.52,9,3.19,9,1.13,0,2.88-1.19,2.88-3.68v-2.36h-3.07v-3.42h7.52v12.43h-3.42V422h-.07a5.17,5.17,0,0,1-4.84,2.58c-5.71,0-6.84-4.26-6.84-12.23,0-7.75,1.81-11.72,7.75-11.72,5.06,0,7.16,2.62,7.16,7.3Z" transform="translate(-94.23 -400.65)"/><path class="cls-1" d="M491.11,401.11l5.61,15.78h.07V401.11h4.26v23h-5.3L490.07,408H490v16.14h-4.26v-23Z" transform="translate(-94.23 -400.65)"/><path class="cls-1" d="M239.12,435.47c-.83,3-2.54,5.77-6,5.77-4.54,0-4.23-4.26-3.4-8.27s2.42-8.26,6.83-8.26c3.23,0,4.23,1.83,3.68,4.94h-2.05c.36-1.8,0-3.34-2-3.34-2.74,0-3.68,3-4.45,6.66s-1.05,6.66,1.69,6.66c2.38,0,3.16-2.23,3.63-4.16Z" transform="translate(-94.23 -400.65)"/><path class="cls-1" d="M247.36,425H250l1,15.9h-2.05l-.24-4.36h-5.08l-2.07,4.36h-2.05Zm-3,9.93h4.27l-.42-7.68h-.05Z" transform="translate(-94.23 -400.65)"/><path class="cls-1" d="M256.53,425h3.3l.55,12.61h.05L266.24,425h3.3l-3.3,15.9h-2l2.87-13.9h0l-6.39,13.9h-2l-.65-13.9h0l-2.88,13.9h-2Z" transform="translate(-94.23 -400.65)"/><path class="cls-1" d="M273.27,425h4.06c1.38,0,4.94,0,4,4.57a5.47,5.47,0,0,1-5.54,4.61h-2.43l-1.38,6.72h-2Zm.38,7.57H276c1.43,0,2.83-1,3.28-3.09.35-1.72-.23-2.88-2.16-2.88H274.9Z" transform="translate(-94.23 -400.65)"/><path class="cls-1" d="M284.92,425h2l-2.32,11.18c-.51,2.34,0,3.43,2,3.43s3-1.2,3.43-3.43L292.29,425h2l-2.31,11.18c-.65,3.05-2.61,5-5.73,5s-4.3-1.74-3.61-5Z" transform="translate(-94.23 -400.65)"/><path class="cls-1" d="M303.65,429.14c.36-1.67,0-2.83-1.87-2.83a3,3,0,0,0-3.16,2.59c-.94,4.47,7.1,1.78,5.92,7.61a5.71,5.71,0,0,1-5.92,4.73c-3.72,0-4.44-1.92-3.72-5.31h2c-.36,1.79-.67,3.7,2.22,3.7a3.46,3.46,0,0,0,3.34-2.81c.94-4.49-7.1-1.89-5.9-7.72a5.33,5.33,0,0,1,5.57-4.39c3.05,0,4.12,1.49,3.52,4.43Z" transform="translate(-94.23 -400.65)"/><path class="cls-1" d="M322.55,440.92H320.6l1.58-7.66h-5.46l-1.58,7.66h-2l3.29-15.9h2l-1.35,6.5h5.45l1.36-6.5h2Z" transform="translate(-94.23 -400.65)"/><path class="cls-1" d="M332.67,425h2.62l1,15.9h-2l-.24-4.36H328.9l-2.07,4.36h-2.05Zm-3,9.93h4.28l-.42-7.68h-.05Z" transform="translate(-94.23 -400.65)"/><path class="cls-1" d="M348.43,429.43c.25-1.67-.07-3.12-2-3.12-2.74,0-3.68,3-4.46,6.66s-1.05,6.66,1.69,6.66,3.57-3.25,4-5.37h-3.14l.33-1.6h4.92l-1.71,8.26h-1.47l.44-2.16h0a4.57,4.57,0,0,1-3.94,2.48c-4.17,0-4.06-4-3.17-8.27.85-4,2.43-8.26,6.84-8.26,4.59,0,3.81,3.9,3.72,4.72Z" transform="translate(-94.23 -400.65)"/><path class="cls-1" d="M354.86,425h8.22l-.35,1.74h-6.26l-1.05,5h5.9l-.35,1.73h-5.91l-1.18,5.71h6.53l-.36,1.73h-8.48Z" transform="translate(-94.23 -400.65)"/><path class="cls-1" d="M366.29,425h2.54l2.49,13.27h.05L374.13,425h2l-3.3,15.9H370.1l-2.43-12.87h-.05L365,440.92h-2Z" transform="translate(-94.23 -400.65)"/><path class="cls-1" d="M379.78,425h4.88c2,0,3.87,1,3.23,4.08a4.48,4.48,0,0,1-3,3.31v0c1.87.47,2.43,2,2,3.92-.69,3.23-2.76,4.54-6.08,4.54h-4.32Zm-1,14.3h2.67a3.35,3.35,0,0,0,3.41-2.94c.4-2.18-.76-3-2.5-3H380Zm1.56-7.44h2.25a3.09,3.09,0,0,0,3.25-2.65c.33-1.67-.27-2.61-2.21-2.61h-2.2Z" transform="translate(-94.23 -400.65)"/><path class="cls-1" d="M392.45,425h8.22l-.35,1.74h-6.26l-1.05,5h5.9l-.36,1.73h-5.9l-1.18,5.71H398l-.36,1.73h-8.48Z" transform="translate(-94.23 -400.65)"/><path class="cls-1" d="M403.88,425H409c2.52,0,3.77,1.47,3.25,4-.35,1.69-1.33,3.58-3.29,4v0c1.33.16,1.89,1.29,1.69,2.65l-.42,2.72c-.29,1.76-.09,2.2.33,2.49h-2.36a1.6,1.6,0,0,1-.18-1,8.89,8.89,0,0,1,.11-1.31l.38-2.47c.29-2.19-.87-2.32-1.87-2.32H404l-1.47,7.08h-2Zm.46,7.22h1.94c1.16,0,3.25,0,3.9-3.08.33-1.58-.49-2.54-2.34-2.54H405.5Z" transform="translate(-94.23 -400.65)"/><path class="cls-1" d="M423.18,429.43c.25-1.67-.06-3.12-2-3.12-2.74,0-3.68,3-4.45,6.66s-1.05,6.66,1.69,6.66,3.56-3.25,4-5.37h-3.14l.33-1.6h4.93l-1.72,8.26h-1.47l.45-2.16h-.05a4.54,4.54,0,0,1-3.94,2.48c-4.17,0-4-4-3.16-8.27.84-4,2.42-8.26,6.83-8.26,4.59,0,3.81,3.9,3.72,4.72Z" transform="translate(-94.23 -400.65)"/><path class="cls-1" d="M431.56,425.57a4.87,4.87,0,1,1-4.87,4.87A4.87,4.87,0,0,1,431.56,425.57Zm0,8.43a3.56,3.56,0,1,0-3.48-3.56A3.49,3.49,0,0,0,431.56,434Zm2.61-2.73a2.38,2.38,0,0,1-2.41,2.08,2.72,2.72,0,0,1-2.8-2.91,2.67,2.67,0,0,1,2.76-2.91,2.28,2.28,0,0,1,2.39,2h-1.29a1.14,1.14,0,0,0-1.17-.81c-.88,0-1.38.75-1.38,1.68a1.54,1.54,0,0,0,1.37,1.68,1.08,1.08,0,0,0,1.17-.85Z" transform="translate(-94.23 -400.65)"/><path class="cls-1" d="M437.31,428.93v-.3c0-1.86,1-2.8,3-2.8,2.25,0,2.87,1.15,2.87,2.6a3.44,3.44,0,0,1-1.47,3,8.49,8.49,0,0,0-1.81,2h3.29v1.7h-5.93a5.45,5.45,0,0,1,2.1-4.18c1.59-1.41,1.61-1.8,1.61-2.49s-.14-1.23-.77-1.23c-.84,0-.84,1-.84,1.71Z" transform="translate(-94.23 -400.65)"/><path class="cls-1" d="M447.36,435.31c-2.78,0-3.05-1.75-3.05-4.74,0-2.66.3-4.74,3.05-4.74s3.06,1.75,3.06,4.74C450.42,433.24,450.12,435.31,447.36,435.31Zm0-1.39c.75,0,.86-.71.86-3.34s-.11-3.36-.86-3.36-.85.7-.85,3.36S446.61,433.92,447.36,433.92Z" transform="translate(-94.23 -400.65)"/><path class="cls-1" d="M453.32,428.68h-1.79v-1.39h.28c1.67,0,2.06-.87,2.16-1.46h1.55v9.29h-2.2Z" transform="translate(-94.23 -400.65)"/><path class="cls-1" d="M460,433a1.5,1.5,0,0,0,.13.68.57.57,0,0,0,.54.29c.74,0,.93-.58.93-2.63h0a1.71,1.71,0,0,1-1.66.82c-1.41,0-2.23-.8-2.23-2.89,0-1.85.59-3.39,3.05-3.39,2.74,0,3.07,1.75,3.07,4.53,0,3.1-.22,4.95-3.23,4.95-1.68,0-2.66-.68-2.7-2.36Zm1.52-3.95c0-1.11-.17-1.78-.81-1.78s-.81.61-.81,1.62.13,1.64.82,1.64S461.48,429.84,461.48,429Z" transform="translate(-94.23 -400.65)"/></g></svg>